<?xml version="1.0" encoding="utf-8"?>
<!-- Generator: Adobe Illustrator 22.1.0, SVG Export Plug-In . SVG Version: 6.00 Build 0)  -->
<svg version="1.1" id="Capa_1" xmlns="http://www.w3.org/2000/svg" xmlns:xlink="http://www.w3.org/1999/xlink" x="0px" y="0px"
	 viewBox="0 0 612 792" style="enable-background:new 0 0 612 792;" xml:space="preserve">
<style type="text/css">
	.st0{fill:#81BB3C;}
	.st1{fill:#0979B3;}
	.st2{clip-path:url(#SVGID_2_);fill:#D11A3F;}
	.st3{clip-path:url(#SVGID_2_);fill:#F1E9EA;}
	.st4{fill:none;stroke:#FFFFFF;stroke-width:4.5;stroke-miterlimit:10;}
</style>
<circle class="st0" cx="370.8" cy="188.9" r="37.8"/>
<circle class="st0" cx="441.3" cy="192.4" r="19.1"/>
<circle class="st0" cx="496.4" cy="213.9" r="17"/>
<circle class="st0" cx="539.6" cy="248.6" r="13.9"/>
<circle class="st0" cx="567.4" cy="295.3" r="14.6"/>
<path class="st0" d="M313.5,326c0,0,31.8-87.3,106.1-96.7c74.3-9.4,109.4,45.4,116.8,70.6c6.5,22.3,8.2,62.2-7.1,95.7
	c-10.8,23.5-25.9,100.8-28.3,121.2c-2.4,20.3-11.8,111.1-95.5,119.4s-106.1-102.6-73.1-141.5s94.3-82.5,86.1-136.8
	C410.2,303.6,348.9,295.4,313.5,326z"/>
<g>
	<path class="st1" d="M298,326c0,0-31.8-87.3-106.1-96.7c-74.3-9.4-109.4,45.4-116.8,70.6c-6.5,22.3-8.2,62.2,7.1,95.7
		c10.8,23.5,25.9,100.8,28.3,121.2c2.4,20.3,11.8,111.1,95.5,119.4s106.1-102.6,73.1-141.5s-94.3-82.5-86.1-136.8
		S262.7,295.4,298,326z"/>
	<circle class="st1" cx="237.5" cy="189.1" r="37.8"/>
	<circle class="st1" cx="170.2" cy="192.4" r="19.1"/>
	<circle class="st1" cx="115.1" cy="213.9" r="17"/>
	<circle class="st1" cx="72" cy="248.6" r="13.9"/>
	<circle class="st1" cx="44.2" cy="295.3" r="14.6"/>
</g>
<g>
	<defs>
		<path id="SVGID_1_" d="M305.2,359c10-49,61.8-38.4,67.8-36.6c17.9,5.4,47.5,35,25.7,80.8s-93.5,95.1-93.5,95.1
			s-77.4-53.5-92.5-94.9c-18-49.3,9.5-79.9,35.8-82.7C296,315.4,305.2,359,305.2,359z"/>
	</defs>
	<clipPath id="SVGID_2_">
		<use xlink:href="#SVGID_1_"  style="overflow:visible;"/>
	</clipPath>
	<path class="st2" d="M367.6,366.9c-9.7-8.3-20.5-14.6-33.4-16.8c7.2-0.6,13.8,1.3,20.2,4c10.2,4.3,19.2,10.5,27.5,17.8
		c1.9,1.7,4.2,3,6.3,4.5c0.5,0.6,1,1.2,1.8,0.5c0.2-0.1-0.2-0.9-0.3-1.3c-5.1-6.2-11.8-10.6-18.3-15c-5.5-3.7-10.8-7.5-16.1-11.6
		c0.4-0.3,0.8-0.6,1.2-0.9c0.6,0,1.3-0.1,1.6,0.2c1.2,1,2.7,2,3.6,0.2c0.7-1.5-1.2-1.9-2.4-2.4c-4.8-2.1-9.6-4.2-14.4-6.3
		c8.7-2.9,15.3,4.1,24.6,5.9c-9.6-9.8-20.9-10.3-31.7-12.4c8.2-1.4,16,0,23.6,2.5c0.8,0.3,1.7,0.5,2.5-0.1c-0.5-0.4-1.1-0.8-1.6-1.2
		c-8.4-5-17.5-5.2-27.1-4.5c-6.9,0.6-14,1.9-22.6,0.8c6.6-4.5,12.7-3.1,18.2-4.3c0.7-0.1,1.3-0.1,2-0.2c0.9,0,1.7,0,2.6,0
		c0,0,0.4,0.2,0.4,0.2l0.4-0.2c0.8,0,1.7,0.1,2.5,0.1c1.4,0.1,2.8,0.2,4.3,0.3c5.9,0.5,11.8,2.4,17.8,1.3
		c-12.8-4.1-26.2-3.1-40.1-3.5c2.1-3,4.6-2.7,6.7-3.3c1.7-0.1,3.3-0.1,5-0.2c16.8-0.9,32.8,1.7,47.5,10.3c1.3,0.8,2.7,1.5,4.7,2.5
		c-1-4.4-4.2-5.3-6.8-6.7c-6.6-3.4-13.8-5-20.9-6.8c-3-0.7-5.1-2.8-9-2.6c-6.8,0.5-13.6,1.5-20.4,1.3c2.9-3.5,7-4,11.1-4.8
		c4,0,7.9,0,11.9,0c-4-0.7-8.1,0.4-11.9-1.7c2.2-4,5.7-2.9,9.1-2.3c2.4,1.8,5.1,0.8,7.6,1c0.8,0.1,1.2,1.5,2.3,0.9
		c1.1,0.1,2.2,0.1,3.3,0.2c4.7-1,7.3,4.9,12.2,3.6c1.8-0.5,3.7-0.5,5.4,0.5c1.3,0.7,2.9,1.5,2.4,3.3c-0.6,1.8-2.2,0.7-3.3,0.7
		c-0.9,0-1.8,0-2.8,0.4c7.7,3.7,14.4,8.7,21.1,13.8c7.6,5.7,8.3,5.8,5.4,14c-1.4,3.8,0.2,4,2.3,5.3c1.7,1,3.6,2.1,4.3,4.1
		c0.7,2.1,1.1,4.3-2.4,3.7c-2.7-3.7-6.6-5.5-10.6-7.1c-0.3,0.4-0.5,0.8-0.8,1.2c3.5,2.3,6.9,4.6,10.4,6.8c1.1,1,2.2,2,3.1,3.1
		c1.7,1.9,4.4,4.9,1.9,6.5c-2.4,1.5-4.7,8.5-9.6,2.1c-1.2-1.5-4.3-5-6-2.6c-1.5,2.2,2.5,4.4,4.5,6c1.8,1.5,4.4,1.9,6.4,3.1
		c2.6,1.6,5.3,3.7,0,5.4c-1.8,0.6-0.1,1.3-0.3,1.9c-1.1,3.9,1.7,9.8-5.6,10.6c-2.5,0.3-1.8,1.9-1.3,3.7c0.9,3.6,4,7.5-1.9,10.2
		c-0.7,0.3-1,3.5-0.6,5.7c1,4.6,0.6,4.5-4.4,5c-2,0.2-4,1.6-5.9,2.6c-2.8,1.4-4.7,1.2-4-3.1c-3.1,2.9-3.7,6.6-5.6,9.5
		c-0.7,1.1-1.7,2.1-3.2,1.5c-1.7-0.7-1-2.1-0.7-3.3c0.6-2.1,1.2-4.3,2-6.3c5.3-13.6,1.9-28.3-8.7-38.7c-6.3-6.2-11.6-13.5-19.5-18
		c-5.1-2.9-10.3-5.1-16.3-4.6c-5.8,0.5-11.3-1.8-17-1.3c9.5-1.8,19-0.9,28.3,1.1c9.5,2.1,16.6,9.9,27.8,11.9
		c-9.7-7.2-18.9-12.5-29.1-16.2c10.7-0.1,19.3,5.2,28.3,9.7c0.6,0.3,1.2,0.9,1.7,0C368.7,367.8,368,367.2,367.6,366.9z M392.2,378
		c-0.4-0.6-0.8-1.3-1.6-0.6c-0.1,0.1,0.2,0.9,0.4,1.3c0.4,0.4,0.8,0.8,1.1,1.2c0.1,0.2,0.2,0.3,0.3,0.5c1.8,2,3.1,4.6,5.9,5.3
		c0.3,0.1,1.4-1,1.3-1.5c-0.5-3.6-4.1-3.6-6.3-5.3C393,378.7,392.6,378.3,392.2,378z M383.4,399c0.5,0.3,0.7,1.4,1.5,0.7
		c0.5-0.5,0.2-1.3-0.6-1.7c-1.5-2.8-3.2-5.3-7-5.6C379.4,394.6,381.4,396.8,383.4,399z M372.3,347.5c4.2,2.8,8.2,5.6,13.5,9.1
		c-1.5-4-4.2-7.5,3.5-7.1c-4-2.5-6.4-4.1-8.9-5.6c-0.7-0.4-1.7-0.3-2.5-0.5C378.7,348.5,374,345.7,372.3,347.5z M373.6,379.6
		c5.2,4.1,9.1,9.6,14.2,13.7C385,386.8,380.8,381.6,373.6,379.6z M402.6,369.7c-2.9-5.2-6.9-7.2-11.3-8.8
		C393.8,365.1,396.9,368.1,402.6,369.7z M382,420.4c2.7-4.4,3.2-8.9,0.9-13.6C381.9,411.2,383,415.9,382,420.4z"/>
	<path class="st2" d="M358.5,445c-7.2,5.6-11.5,13.9-18.8,19.3c-0.3,0.3-1,0.9-0.9,1c0.7,1.5,2,0.3,3,0.7c1.4,1.6,3.9,4.2,0,4.8
		c-7.9,1.1-12.6,7.2-19,10.6c-1.3,0.7-2.6,1.3-4.1,2c1.4,2,5.3-1,5.1,2.4c-0.1,2.4-2.7,3.4-4.9,3.9c-5,1.1-9.7,3.7-15.1,3.7
		c4.4,2,8.9,0.6,13.3,0.3c1-0.1,2-1,3-0.1c1,0.9,0.9,2.3,0,2.9c-2.2,1.4-0.6,3-0.3,4.2c1.2,5.4,0.9,5.8-4.8,5.1
		c-4.4-0.5-4.4-0.5-7.8,1.4c0.4,1.7,4.7,2.4,1.6,5c-2,1.7-4.4,0.8-6.1-0.7c-2.3-1.9,0.1-2.9,1.5-4.3c-2.4-0.8-4.6-1.4-6.7-2.4
		c-1.7-0.8-3.5-2-1.2-4.1c6.6,2.4,12.6,0.1,18.6-2.2c-6.2,0.4-12.4,0.8-18.6,1.2c-2.5-1.1-5-2.3-7.6-3.4c-2.1-0.8-3.7-2-3.2-4.5
		c0.6-2.6,2.8-0.9,4.2-1.3c5.1-1.5,10.7,1.3,15.5-2.3c0.8-0.2,1.6-0.4,2.4-0.6c1-0.2,2-0.5,2.9-0.7c0-0.2,0-0.4-0.1-0.6
		c-1,0-2,0-3,0c-0.8,0-1.5,0.1-2.3,0.1c-5,0-10-0.4-15-0.1c-5.3,0.4-9.8-2.5-14.8-3.1c-1.3-0.2-1.7-1.3-1.2-2.5
		c0.5-1.2,1.8-1.6,2.7-1.1c2.9,1.7,6.1,0.8,9.2,1.3c-2.6-2.6-6.2-2.2-9.2-3.5c-2-0.8-3.6-1.9-2.7-4c0.8-1.9,2.4-0.2,3.7-0.1
		c2.8,0.4,5.7,2.9,8.8,0.3c-7.3-3.9-15.7-5.4-22.1-12c3.5-1.2,5.4,0.6,7.5,1.5c10.7,4.6,21.5,8.9,33.5,8.4c1.9-0.1,3.7,0.4,5.3,1.2
		c1.7,0.8,3.1,1.9,0.4,3.3c-1.7,0.8-2.1,2.3-1.4,3.7c0.9,1.9,2.5,0.8,3.8,0.3c4-1.4,8.2-2.5,11.8-6.1c-2.5-0.6-4.4-0.9-6.3-0.1
		c-1.3,0.6-2.9,2-3.6-0.1c-0.5-1.5,0.5-2.9,2.4-3.7c4.7-2,9.7-3.1,14-5.9c0.8-0.5,1.5-1.1,2.2-1.6c1.9-0.3,2.6-1.9,3.5-3.3
		c0,0,0-0.2,0-0.2l0,0.2c-1.8,0.1-3.3,0.9-4.6,2.1c-5.8,2.3-11.2,5.3-17.6,5.8c-9.6,0.8-19,2.6-27.9-3c0.5-2.1,2.9-2.1,4.6-3.9
		c-9.7-2.6-17.4-9-26.9-11.2c0,0,0,0.1,0,0.1c0.3-2.4-1.3-3.6-2.9-4.8c0.2-0.3,0.5-0.6,0.7-0.8c7.5,3.6,14.2,9,24.4,10.3
		c-4.8-4.1-9.3-5.6-13.5-7.4c-2.7-1.2-5.4-2.3-5.6-5.9c0.2-0.3,0.5-0.5,0.7-0.8c4.3,1.3,8.2,3.6,11.7,6.3
		c16.4,12.1,49.3,5.7,58.2-18.3c1.3-3.6,2.7-7.3,4.2-10.8c2.2-5.5,2.6-11.6,4.9-17c1.6-3.7,2.6-6.3-0.1-9.8
		c-1.8-2.4-1.1-3.9,1.5-7.1c0.7-0.8,0.3-1.3-0.2-1.9c-3.7-4.4-7.4-8.8-13-11c-1.9-0.7-4-1.9-5.8-0.6c-1.5,1.2,2,2.6,0.6,4.3
		c-4.9-3.8-11.2-2.5-16.9-4.2c1.1-3.1,2.9-3.8,5.9-4.1c13.6-0.9,24.4,3.6,33.3,14.3c6.1,7.3,13.1,13.7,17.4,22.5
		c4.2,8.5,1.9,16-1.3,23.5c-2.1,5-5.7,9.3-8.6,14C359.6,441.6,358.2,443,358.5,445L358.5,445z M350.2,384.7
		c1.5,8.1,7.8,12.8,11,19.4c2.6,5.4,3.9,10.2,2.3,15.8c-0.8,2.7-1.5,5.5-2.2,8.4c0.7-0.1,1.1-0.1,1.3-0.3c0.4-0.4,0.8-0.8,1-1.3
		c2.3-9.8,8.5-19.7-1.8-28.8c-1.5-1.3-2.2-3.5-3.5-5C355.8,390.2,354.4,386.3,350.2,384.7z M344.2,440.4
		c-8.2,8.3-16.4,16.6-27.8,20.8C325.2,464.2,334.8,457.1,344.2,440.4z M351.9,400.7c1.1,4.5-6.3,8.9,2.7,11c1.2,0.3,0.7,1.4,0.3,2.3
		c-0.7,1.5-1.3,3-2,4.5c-0.7,1.7-2.1,4.1-0.2,4.8c1.8,0.7,4-0.9,4.9-3.3C359.6,414.4,357.6,406.2,351.9,400.7z M294.2,456.3
		c9.1,5.6,28.7,1.3,31.8-7.4C316.2,455.6,305.6,456,294.2,456.3z M345.6,424.3c-2.8,3.4-4.8,7.2-6.3,12.8
		C343.5,432.8,345.2,428.8,345.6,424.3z M331.4,470.1c1.7-0.8,4.4,1.9,5.7-1.3c0.2-0.4,0-1.5,0-1.5
		C334.8,467.2,333.1,468.4,331.4,470.1z"/>
	<path class="st2" d="M291.6,414.4c0.8,0,1.6,0.1,2.4,0.1c1,0.2,1.9,0.2,2.7-0.5c5.1,0,9.8-1.8,14.1-4.3c3.8-2.2,5.7-5.3,3.8-9.7
		c-1.7-3.9-7-6.4-10.8-5.3c-3.7,1.1-7.4,2.4-11.1,3.6l0,0c0.1-3.3,3.5-4.1,5.1-4c5.8,0.2,11.9-1.9,17.3,1.8c0.3,0.7,1.2,1.4,1.6,1
		c1-1.1,0.4-2.2-0.6-3.2c0-0.9-1.4-2.9,1.3-1.7c1.7,0.7,1.6,4.1,4.4,3c1.3-0.6,0.3-0.9-0.2-1.3c0.4-2.4-1.7-4.2-1.9-6.8
		c3.4,0.8,3.7,3.5,4.6,5.8c0,0.7-0.1,1.4-0.1,2.1c0.6,4.5,1.8,9,0.1,13.5c0.1,0.7,0.1,1.4,0.2,2c-2.3,5.6-7.7,7.4-12.4,10.2
		c-1.3,0.7-3.7,1.4-2.6,3.4c1,1.9,3.1,0.3,4.4-0.2c8.8-3.6,13.7-10.1,14.6-19.6c0.2-0.5,0.3-0.9,0.5-1.4c1.1-4.2,1-8.4,0.5-12.6
		c3.9,1.2,3.9,4.7,4.1,7.7c0.2,3.5-0.6,7-0.9,10.5c1.3-4.5,2.4-9.1,2.8-13.8c0.3-3.9,0-7.8-2.4-11.2c-1.5-2.1-3.7-4.2-6-3.1
		c-3.1,1.5,0.4,3.7,0.4,5.6c-4.9-0.6-5-6.2-8.4-8.3c0.2-0.2,0.4-0.5,0.6-0.7c14.3,1.3,20.3,7.6,20.3,21c1-5.9,1.6-11.6-2.1-17
		c-0.7-1.1-2.9-1.9-1.6-3.9c6.9,4.4,9.9,10.6,8.8,18.8c-0.9,6.8-1.9,13.7-4.3,20.1c-5.2,13.6-11.7,26.3-27.5,30.2
		c-11.1,2.7-22.2,1.8-32.4-3.7c-6.8-3.7-13.5-7.7-19.8-12.3c-5.6-4.1-10.1-8.9-13.1-15.2c-0.9-1.9-0.7-6.2-3.7-5
		c-2.4,0.9-1.4,4.9-0.7,7.4c0.9,2.9,2.5,5.2,4.9,7.5c6.2,6.1,14.2,9.4,20.5,15.2c-0.2,0.3-0.5,0.5-0.7,0.8
		c-6.5,0.6-9.8-5.2-14.7-7.9c1.8,5,5.6,8,9.4,10.9c-0.2,0.3-0.5,0.6-0.7,0.8c-1.7-0.7-3.4-1-5.9-0.2c2.6,2.8,4.5,5.8,8.8,5
		c0,0,0-0.1,0-0.1c0.1,4.5-1.9,4.8-5.2,2.6c-2.9-1.9-5.5-5.6-7.7-6.4c-7-2.5-10.7-9.2-17.2-11.8l0.1,0.1c0.3-1.1,0.3-1.9-1.2-1.2
		l0.1,0.1c0.1-0.4,0.5-1,0.3-1.3c-6.4-15.6-1.8-30,4.9-44.1c1.2-2.4,1.3-2.4,5.3-4.7c1,17.7,1.9,35.4,20.1,45.6
		c1.6-3.5-4.3-4.5-2.3-7.8c4-0.6,4.4,4.8,8,4.9c0.4,0.1,0.8,0.2,1.2,0.3c0-0.4,0-0.9,0-1.3c-2.7-4.6-5.4-9.2-8.1-13.8
		c-5.8-9.9-4.7-22.1,1.8-29.6c-0.5,6.8-5.4,14-2.9,22.5c0.4,1.3,1,3.2,2.9,2.6c1.9-0.6,1.4-2.4,1.2-3.8c-1.6-11.6,5.3-19,12.7-26.2
		c0.8-0.8,1.8-1.3,2.8-1.8c0.8-0.4,1.6-0.7,3.6-1.4c-5.1,5.7-10.4,9.4-13.8,15c-1.2,2.1-4.1,4.9-1.3,6.6c2.1,1.2,4.7-1.6,5.9-4.3
		c2.9-6.6,8.8-10.1,15.2-13.5c0.6,2.2-1.5,2.7-1.7,4c-0.7,0.6-1.6,1.1,0,1.7c4.7,1.1,8.7-2.5,13.3-1.8c-0.1,0.7-0.2,1.3-0.4,2
		c-4.7,0.9-9.4,1.9-14.1,2.8c-0.8,0.2-1.7,0.4-2.5,0.6c-2,0-4.2-0.5-5.4,1.8c-0.8,0.8-0.8,1.6,0,2.3c-0.4,0.5-0.4,1.1,0.1,1.5
		c-0.1,0.7-0.2,1.4-0.3,2.1c-5.1,1.1-9.1,3.6-10.8,9c-0.2,0.4-0.4,0.8-0.5,1.1c-0.5,1.2-0.5,2.3,0,3.5c0.2,0.4,0.3,0.9,0.5,1.3
		c-0.7,14.5,10.8,22.2,23.6,19.3c0.5-0.1,1.1-0.3,1.6-0.4c2.8,0.3,5.6,1,8.3-0.3c1.3,0,2.8-0.2,2.8-1.7c0.1-1.5-1.3-1.3-2.4-1.2
		c-0.8-0.1-1.6-0.2-2.1,0.7c-2.7-1.4-5.6-0.4-8.4-0.7c-1.4-0.2-2.8-0.3-4.2-0.5c-0.5-0.2-0.9-0.3-1.4-0.5c-3.5-1-7.9,0.4-10.4-3.6
		c0.3-0.4,0.6-0.8,0.9-1.2c2.1,1.7,4.7,2,7.2,2.8c1.1,0,2.1-0.1,3.2-0.1c4.9,0.6,9.7,0.9,14.6,0c0.5-0.2,1-0.3,1.5-0.5
		c6.7-2.4,13.9-3.9,17.4-11.3c0.2-0.4,0.5-0.7,0.7-1.1c0.6-4,0.8-7.9-0.8-12.5c-3.1,15-13.4,19.8-26.7,20.7c-0.5,0.2-1,0.3-1.5,0.5
		c-2.1,0.2-4.2,0.4-6.2,0.6c-0.3-0.2-0.7-0.3-1.1-0.2c-2.5-1.1-4.6-2.6-4.3-5.7c0.4-4.7,4.9-4.2,7.7-6c0.8,3,2.4,5.1,5.5,5.9
		c-0.8,0.1-1.5,0.2-2.3,0.3c-0.9-0.1-1.7-0.2-2.2,0.7c-1.4-0.1-2.9-0.1-4.3-0.3c-1.5-0.2-1.5,0.4-0.9,1.4c0.3,0.2,0.5,0.4,0.8,0.6
		c1.2,0.5,2.4,0.4,3.5-0.1C290.3,414.4,291,414.4,291.6,414.4z M331.6,422.9c-6,8.2-13.4,12.8-22.2,15c-1.5,0.4-3.5,1.7-4.3-0.5
		c-0.9-2.4,1.7-2.5,3.1-2.9c6.7-2,12.6-5,17.4-10.2c2.2-2.5,2.4-2.3,2.2-5.8c-13.2,14.1-30.5,13.1-47.7,12.9
		c3.8,2.6,8.1,2.1,11.9,3.6c1.4,0.5,3.9,0.2,2.9,2.8c-0.7,1.8-2.3,1.4-4.2,0.9c-4.2-1-8.3-3.2-13.7-2.4
		C301,449.7,329.5,442.9,331.6,422.9z M255.5,444.4c0.4-0.4,0.9-0.8,1.3-1.1c-2.8-3.4-5.9-6.6-8.4-10.1c-3.9-5.4-7.5-10.7-7.7-18
		c-0.2-5.8,1.2-11.2,2.1-16.7c0.3-2.1,1.3-5.2-1.2-6c-2.7-0.9-3.4,2.3-4.2,4.2c-3.4,7.9-3.7,16-1.8,24.5
		C238.2,432.6,247.1,438.2,255.5,444.4z M307.9,424.9c-0.1,0.1-0.3,0.2-0.4,0.3c0.1,0.1,0.2,0.4,0.3,0.4c0.1,0,0.3-0.2,0.4-0.3
		C308.1,425.2,308,425.1,307.9,424.9z"/>
	<path class="st2" d="M245.9,363.6c-5,9.4-10.9,18.4-14.8,28.4c-3.6,9.2-4.8,18.5-3.3,28.3c0.3,2,1.2,4.7-1.2,5.3
		c-2.5,0.6-2.9-2.3-3.3-4.3c-1.8-8.2,1-15.7,3.4-23.2c2.2-6.8,4.4-13.7,8.7-19.6c1-1.4,2.4-3.9,0.7-5c-2.2-1.4-3.4,1.3-4.4,3
		c-5.7,9.1-10.9,18.5-12.1,29.3c-0.5,4.6-0.5,9.4,0.7,14.1c0.4,1.4,1.3,3.2-0.5,3.9c-2.2,0.8-2.9-1.4-3.2-2.9
		c-1.3-9.4-2.4-19,2.9-27.4c4.1-6.4,6-13.8,11.5-20.3c-9.9,3-19.2,22.6-20.1,40.6c-2.1,0.3-2.7-1.3-2.7-2.7
		c-0.1-8.2-0.5-16.4,5.2-23.6c6.1-7.7,12.4-15.2,18.8-22.6c1.2-1.4,4.3-2.5,2.4-4.7c-1.3-1.5-3.2,0.7-4.8,1.5
		c-0.4,0.2-0.9,0.4-2.2,0.9c1.4-3.5,3.7-4.8,5.9-6.1c9.1-5.6,19.1-9.7,27.5-16.6c2.7-2.2,6.3-2.1,9.4-3.1c3.1,0.3,6.2-0.9,9.5,0
		c2,0.5,4.8,0.5,6.3-1.9c4.3,0.4,8.6,0.9,14,1.4c-6.2,5.8-14.3,0.9-20.4,5.6c4.6,0.9,8.5,1.4,12.5-0.2c1-0.4,2.8-0.9,3.5,0.5
		c0.7,1.5-1,2.2-1.8,3c-0.8,0.7-1.8,1.5-2.8,1.6c-6.9,0.6-13.9,1-20.8,1.4c-1.2,0.1-2.3-0.2-2.5-1.6c-0.2-1.4,0.8-2,1.9-2.2
		c2.2-0.3,4.4-0.6,6.6-0.7c1.2-0.1,2.4-0.5,2.4-1.6c-0.1-1.3-1.6-1.5-2.6-1.3c-5.4,1-11.5,0.9-16.1,3.5
		c-8.6,4.9-16.7,10.9-23.3,18.6c-1.2,1.4-1.8,3.1-2.8,4.7c-0.2,0.5-1.5,0.8-0.7,1.5c0.5,0.5,1.4,0.2,1.9-0.5
		c3.9-0.9,7.3-2.9,10.7-4.9L245.9,363.6z"/>
	<path class="st2" d="M227.2,347.1c0-2.5,2.6-3.5,3.3-5.6c0,0-0.1,0.1-0.1,0.1c0.8-0.1,1.4-0.2,1.2-1.2l0,0.1
		c7-2.9,12.5-8.6,19.5-11.3c12.5-4.9,25.5-7.4,39.1-6.6c0.8,0,1.4,0.2,1.5,1.2c0,0.9-0.8,0.9-1.4,1.3c-3.1,1.9-6.7,1.9-10.2,3.3
		c3.5,0,6.9,0,10.4,0c1.7,0,4.3-1.3,4.6,1.3c0.3,2.7-2.7,1.6-4.1,2.4c-3.3,1.7-7,0.8-10.3,1.9c-3.4,0.4-6.7,0.8-10.1,1.2
		c-17.5,0.8-29.4,12.2-42.6,21.6c-7.6,5.4-13,13.1-20.4,18.6c-3,2.2-3.8,5.8-5.8,8.7c-0.8,1.1-0.6,4.1-3.1,2.7
		c-1.8-1-0.9-3.2-0.2-4.5c2.4-4.8,5.2-9.5,9.7-12.7c16.2-12,31.5-25.2,49.6-36.6c-7.4-1.1-12.1,3-17,5.8c-4.6,2.6-8.5,6.4-13.5,8.3
		L227.2,347.1z"/>
	<path class="st2" d="M226,328.1c-3.7-1.4-0.9-2.5,0.3-3.4c3.5-2.5,8.2-2.9,11.8-6.1c-2.5-1.2-5.1,0.7-7.6-1.5
		c8.1-5.3,16.7-7.5,25.9-8c2.1-0.1,2.4,2.3,3.5,2.7c2.8,1,6,2.6,8.9,1.2c5-2.5,6.4,1.5,7.5,4.4c1.2,3.5-2.5,3.5-4.5,3.9
		c-7.1,1.3-14.2,2-21.3,3.5c-8.6,1.8-13.7,8.6-19.5,14.4c-0.5,0.5,0.2,0.9,0.7,1.1c0,0,0-0.1,0-0.1c-0.4-0.1-0.7-0.7-1.3-0.1
		c-0.6,0.6,0.1,0.9,0.1,1.3c0,0,0.1-0.1,0.1-0.1c-3.8-0.8-5.7,2.2-8,4.2c-6.8,5.8-14.2,10.8-22.3,15.3c-0.9-3.3,1.1-4.3,2.8-5.6
		c10.2-7.2,21.2-13.3,29.6-22.9c0.7-0.6,2.2-0.7,1.2-2.2l-0.1,0.1c4.3-0.9,6.6-4,9.4-7.9C236.2,322.3,231.6,326.8,226,328.1z"/>
	<path class="st2" d="M329.5,350.2c-21.5-0.9-42.3,2.6-63.3,8.2c0.1-3,2.1-4.1,3.7-4.6c5.6-1.8,10.8-4.6,17-4.6
		c12.4,0,24.7-1.7,37.1-1.1c1.8,0.1,3.6,0,5.4,0C329.5,348.8,329.5,349.5,329.5,350.2z"/>
	<path class="st2" d="M358.4,445.1c2.9,0,4.1-2.6,5.7-4.2c2.6-2.6,4.3-6,9.1-4.3c1.8,0.7,3.1-1.6,4-3.2c1-1.9,1.7-4.2,4.4-4.6
		c1.2,2.8-1,4.5-2.2,6.4c-2.2,3.4-4.8,6.5-7.2,9.8c-1.3,1.7-2.3,3.3-4.8,1c-1.7-1.6-2.7,0.9-4,1.6
		C360.4,449.4,358.6,448.9,358.4,445.1C358.5,445,358.4,445.1,358.4,445.1z"/>
	<path class="st2" d="M228,362.1c-2.9,6.7-9.5,9.7-13.6,15.2c-3.4,4.6-7.2,8.8-7.8,14.8c-0.1,1.4-0.6,3.2-2.6,2.8
		c-2.1-0.4-1.7-2.3-1.3-3.6c1.4-5.7,2.7-11.4,7.9-15.4C216.4,371.4,222.3,366.9,228,362.1z"/>
	<path class="st2" d="M227.1,347c-0.1,3.1-2.9,4.1-4.7,5.7c-8.3,7.4-16.6,14.8-24.8,22.1c-1-4.8,19.2-23.9,29.7-27.7
		C227.2,347.1,227.1,347,227.1,347z"/>
	<path class="st2" d="M338,357.7c-4-0.3-7.3-0.1-10.3-0.9c-7.3-1.8-14.3-0.1-21.3,1.2c-4.9,0.9-9.3,1.1-13.6-1.6
		C304,353.1,330.7,353.5,338,357.7z"/>
	<path class="st2" d="M362.6,455.8c-0.5,0.8-0.6,1.3-1,1.7c-3.5,2.7-6.9,5.5-10.5,8.1c-1.1,0.8-2.6,1.5-4,0.1c-1.6-1.7,0.7-2,0.9-3
		c1-3.9,3.7-6.7,5.8-9.9c1-1.5,2.8-2.1,3.6-0.9C358.8,453.8,361.7,453.6,362.6,455.8z"/>
	<path class="st2" d="M320.8,344.2c-1.9,0-3.8,0-5.8,0.1c-1.2-0.3-2.4-0.2-3.5,0.5c-1.8-0.5-4.8,1.1-5.3-1.4
		c-0.4-2.4,2.6-2.2,4.2-2.3c11.2-0.1,22.3,0.7,33.3,3.1c0.8,0.2,1.4,0.7,3,1.5c-5.6,1.6-9.7-2.1-14.2-1c-1.2-0.8-2.5-0.7-3.8-0.4
		c-0.8,0-1.6,0-2.4-0.1C324.4,344.2,322.6,344.2,320.8,344.2z"/>
	<path class="st2" d="M231.7,331.5c-5.6,3.6-11.2,7.2-16.7,10.8c-1.7,1.1-3.4,2.2-6.3,1.3c6.6-5.4,13.9-8.9,19.6-14.5
		c2-0.1,4.8-4.4,5.5,1.2c0,0,0.1-0.1,0.1-0.1C232.8,330,232.2,330.8,231.7,331.5z"/>
	<path class="st2" d="M297.2,364.4c-12.4,0.3-21.3,5.5-29.4,12.5C272.3,366.9,285.7,360.9,297.2,364.4z"/>
	<path class="st2" d="M337.5,339.1c-8.9-0.6-17.7-1.2-26.6-1.9c-0.5,0-1-0.9-1.3-1.5c-0.1-0.1,0.6-1,1-1
		C319.7,334.6,329,333.9,337.5,339.1z"/>
	<path class="st2" d="M257.9,415.6c-6.3-5-9.3-20-5.7-28.2C252.2,397.1,253.6,406.6,257.9,415.6z"/>
	<path class="st2" d="M350.1,471.2c-4.5,4.8-10.6,7.1-15.3,11.4c-0.7,0.6-1.8,0.6-2.5-0.2c-0.7-0.9-0.2-1.9,0.5-2.4
		C338.1,476.1,343.7,472.9,350.1,471.2z"/>
	<path class="st2" d="M267.3,365.2c12.5-8.1,16.3-9.3,22.3-6.7C282.4,359.6,276.4,364.8,267.3,365.2z"/>
	<path class="st2" d="M272.5,472.9c-0.8,2.2-2.6,2.9-4.3,1.6c-3.2-2.4-6.1-5.2-9.2-7.8c-0.6-0.5-1-1.2-0.3-1.8
		c0.3-0.3,1.1-0.5,1.4-0.3c4,2.4,8,4.8,12,7.3C272.4,471.9,272.4,472.5,272.5,472.9z"/>
	<path class="st2" d="M305.1,408.7c-1.1-0.2-2.1-0.3-3.4-0.5c2.2-2.3,7.9-2.4,5.8-6.6c-1.8-3.5-5.6-0.5-8.3,0.6
		c-1.8,0.7-3.5,0.8-5.3,0.6c3-3,6.9-3.9,10.8-4.4c3.2-0.4,5.9,0.6,6.3,4.4c-0.2,0.3-0.2,0.7-0.1,1.1
		C309.8,406.5,307.4,407.5,305.1,408.7z"/>
	<path class="st2" d="M250,451.3c-0.3,1.9-2.1,1.8-3.3,1.3c-3.5-1.5-5.9-4.3-7.6-7.6c-0.6-1.2-0.3-2.2,1.2-2.4
		C241.7,442.3,249.9,449.5,250,451.3z"/>
	<path class="st2" d="M246,363.7c4.1-6.9,10.8-10.8,18.3-16.2c-1.6,4.1-14.6,14.6-18.4,16.1C245.9,363.6,246,363.7,246,363.7z"/>
	<path class="st2" d="M234.9,433.8c-0.5,2.4,4.2,4.4,1.5,6.1c-2.6,1.7-4.6-1.8-6.5-3.6c-0.5-0.5-1-1.1-1.3-1.7
		c-0.7-1.4-2.2-2.8-0.4-4.3c1.9-1.6,2.9,0.2,4,1.3c0.5,0.5,1.1,0.9,1.6,1.4c0,0-0.1-0.1-0.1-0.1c0.1,0.7,0.1,1.5,1.2,1.2
		L234.9,433.8z"/>
	<path class="st2" d="M305.7,385.1c3.2,0.7,6.9,0.6,8.2,5c-7.9-7-15.4,0.8-23.8,0.2c4.2-2.9,8.7-3.2,12.7-4.6
		C303.8,385.5,304.8,385.3,305.7,385.1z"/>
	<path class="st2" d="M315.1,376c-1.6-0.1-3.3-0.1-4.9-0.2c-1.2-0.9-2.4-0.9-3.6,0c-2.1-0.7-4,0.3-6,0.6c-0.6,0.1-1.2,0.3-1.8,0.4
		c-1.7-0.9-3.9,1.5-5.3-0.9c0.2-0.3,0.4-0.7,0.6-1c6.9-2,13.9-1.3,20.8-1.1C315,374.6,315.1,375.3,315.1,376z"/>
	<path class="st2" d="M236,307.7c-0.1,2.3-7.1,6.4-8.9,5.5c-0.5-0.3-1.2-1.1-1.1-1.6c0.4-2.2,2.4-3.1,4.2-4c1.6-0.9,3.3-1.7,5.2-0.9
		C235.7,306.8,235.9,307.5,236,307.7z"/>
	<path class="st2" d="M286.6,371.2c5.2-3.6,11.2-2.9,17-3.3C298.3,370.5,292.5,371,286.6,371.2z"/>
	<path class="st2" d="M261.6,459.1c-0.1,1.8-1.1,2.7-2.1,2.4c-3.2-0.7-5.8-2.3-6.9-5.6c-0.3-0.9,0.4-2,1.5-1.6
		C257.2,455.2,259.7,456.8,261.6,459.1z"/>
	<path class="st2" d="M277.8,459.2c-3.9,0.9-7-0.4-9.9-2.2c-0.8-0.5-1.5-1.3-1-2.3c0.7-1.2,2.1-1.3,2.8-0.4
		C271.7,456.9,275.3,456,277.8,459.2z"/>
	<path class="st2" d="M322.3,312.5c4.7-2.9,8.7-2.3,14.3-1.8C331.4,313.9,327.4,314.5,322.3,312.5z"/>
	<path class="st2" d="M399.9,330.3c-4.4,0-7-1.5-8-5.2c-0.2-0.8,0.1-2.3,1.3-1.8C396.3,324.5,398.8,326.5,399.9,330.3z"/>
	<path class="st2" d="M283.4,311.2c1.5,0.2,3.7-0.4,3.7,2.1c0,2.1-1.9,2.6-3.6,2.5c-1.8-0.1-4.1-0.3-4-2.7
		C279.6,310.7,282,311.6,283.4,311.2z"/>
	<path class="st2" d="M275.5,410.5c0,0.8-0.1,1.5-0.1,2.3c0.2,0.5,0.4,1,0.6,1.5c0.1,1.7,0.7,3,1.9,4.2c-0.3,0.4-0.6,0.8-0.9,1.2
		c-5.4-6.5-5.5-9.8,0-14.2c1.4,1.7-1.1,2.5-0.8,3.9C275.9,409.7,275.7,410.1,275.5,410.5z"/>
	<path class="st2" d="M207.8,335.4c2.5-2.2,3.6-6.2,8.4-6.2C214.1,332.9,211.6,335,207.8,335.4z"/>
	<path class="st2" d="M409.2,350.1c-2.3-0.6-3.4-2-3.5-4c-0.1-1.1,0.7-1.7,1.8-1.4c1.8,0.5,2.6,2,3,3.7
		C410.7,349.5,409.9,349.9,409.2,350.1z"/>
	<path class="st2" d="M244.3,459.2c-2.6-2-6.3-3-7.4-7.8c4.2,1.4,6.2,4.1,8.3,6.7C244.9,458.5,244.6,458.9,244.3,459.2z"/>
	<path class="st2" d="M302.7,323.3c-0.2,1.2-0.9,2.1-2.1,2.1c-1.5,0-2.9-0.8-3.2-2.4c-0.2-1.3,0.9-1.8,2.1-1.9
		C301.1,320.9,302.3,321.6,302.7,323.3z"/>
	<path class="st2" d="M245.2,458.2c2.2,1.4,4.9,2.3,6.6,5.5c-4.1,0.4-5.6-2.4-7.6-4.4C244.6,458.9,244.9,458.5,245.2,458.2z"/>
	<path class="st2" d="M355.3,348.9c-0.6-0.7-2.5-0.3-1.9-1.7c0.3-0.6,2.3-0.8,3,0.8C356,348.3,355.7,348.6,355.3,348.9z"/>
	<path class="st2" d="M332.4,374.9c1.4-0.7,2.2,0,2.8,1.2C333.6,377.3,333.2,375.6,332.4,374.9z"/>
	<path class="st2" d="M327.3,386c1.2,0.4,2.2,0.8,1.2,2.3C327.2,388,326.2,387.5,327.3,386z"/>
	<path class="st2" d="M317.4,376c0.3-0.1,0.7-0.2,1.1-0.3c0.4,0.4,0.8,0.8,1.2,1.2c-0.2,0.3-0.4,0.5-0.6,0.7
		C318.5,377.2,318,376.6,317.4,376z"/>
	<path class="st2" d="M328.4,388.2c1.3-0.2,1.2,0.8,1.2,1.6C329.2,389.3,328.8,388.7,328.4,388.2z"/>
	<path class="st3" d="M268.9,403.8c0.2-0.4,0.4-0.8,0.5-1.1C269.3,403,269.1,403.4,268.9,403.8z"/>
	<path class="st2" d="M335.1,376c0.8,0,1.3,0.3,1.2,1.2c-0.4,0-0.9,0.2-1.3,0C334.3,376.8,335,376.4,335.1,376z"/>
	<path class="st3" d="M269.4,408.5c-0.2-0.4-0.3-0.9-0.5-1.3C269.1,407.7,269.2,408.1,269.4,408.5z"/>
	<path class="st3" d="M337.5,459.6l0-0.2C337.5,459.4,337.5,459.5,337.5,459.6C337.6,459.5,337.5,459.6,337.5,459.6z"/>
</g>
<g>
	<path class="st4" d="M172.2,472.3c-15.4,31.5-25.6,61.1-36.1,94.5c-1.7,5.5-3.1,12.5,1.3,16.3c2.9,2.4,7.2,2.3,10.6,0.8
		c3.4-1.6,6.1-4.3,8.7-7.1c6.3-6.6,12.5-13.2,18.8-19.7"/>
	<path class="st4" d="M195.8,536c-7.8,17.6-13.7,36-17.6,54.8"/>
	<path class="st4" d="M202.1,518.2c0,1.4,0,2.7,0,4.1"/>
	<path class="st4" d="M209.8,547.9c10.1-10.3,22.6-17.9,33.6-27.2c11-9.3,26.4-20.1,23.8-34.3c-0.2-1-2.9-6.3-7.7-6.7
		c-16.6-1.5-26.1,19.4-33.8,34c-19.1,36.3-34.8,74.3-47,113.5"/>
	<path class="st4" d="M200.9,529.8c3.5-1.5,7.4-1.1,11.2-0.6c12.2,1.5,24.4,3.1,36.6,4.6c5.1,0.6,10.2,1.3,14.9,3.3"/>
	<path class="st4" d="M244.9,565.3c5.6,3.2,11.9,5.2,18.3,4.8c6.4-0.5,12.7-3.7,15.9-9.3c3.1-5.6,2.3-13.4-2.6-17.5
		c-1.5-1.2-3.3-2.1-5.2-2.3c-2.1-0.2-4.3,0.3-6.2,1.2c-7.6,3.4-12.4,10.9-15.9,18.4c-4.3,9.1-7.3,18.9-8.9,28.8
		c-0.6,3.3-0.8,7.2,1.7,9.5c1.1,1,2.6,1.5,4,1.8c6.4,1.4,13.2-0.5,18.8-3.8s10.5-7.9,15.2-12.4"/>
</g>
</svg>
